<svg viewBox="0 0 48 48" fill="none" xmlns="http://www.w3.org/2000/svg" role="img" aria-hidden="true">
	<!-- Full-bleed background square -->
	<rect width="48" height="48" rx="6" fill="#3F75FE"/>
	<!-- Scaled cloud-arrow glyph (≈1.45x) so it appears larger inside the square -->
		<g transform="translate(24 24) scale(1) translate(-24 -24)">
		<path d="M19 28C16.7909 28 15 26.2091 15 24C15 22.0929 16.3346 20.4976 18.1207 20.097C18.0417 19.7439 18 19.3768 18 19C18 16.2386 20.2386 14 23 14C25.4193 14 27.4373 15.7183 27.9002 18.001C27.9334 18.0003 27.9666 18 28 18C30.7614 18 33 20.2386 33 23C33 25.419 31.2822 27.4367 29 27.9M27 25L24 22M24 22L21 25M24 22L24 34" stroke="white" stroke-width="2" stroke-linecap="round" stroke-linejoin="round"/>
	</g>
</svg>
